<?xml version="1.0" encoding="iso-8859-1"?>
<!-- Generator: Adobe Illustrator 30.1.0, SVG Export Plug-In . SVG Version: 9.03 Build 0)  -->
<svg version="1.1" id="Layer_1" xmlns="http://www.w3.org/2000/svg" xmlns:xlink="http://www.w3.org/1999/xlink" x="0px" y="0px"
	 viewBox="0 0 500 481.481" style="enable-background:new 0 0 500 481.481;" xml:space="preserve">
<path style="fill:#D50B0B;" d="M84.708,101.849L73.59,77.622c-2.78-6.687-0.195-14.391,6.047-18.073
	c63.395-38.085,125.23-56.158,201.987-56.158c68.661,0,105.041,31.107,105.041,98.312l-3.072,251.958
	c0,19.091,12.143,33.143,33.356,33.143c19.067-0.241,37.744-5.087,54.519-14.05c7.072-4.022,16.143-2.035,17.167,6.007l4.046,28.104
	c1.463,7.752-1.219,15.746-7.07,21.076c-32.917,29.8-75.683,46.565-120.207,47.146c-47.448,0-78.756-26.069-91.874-68.222
	c-42.426,40.167-91.873,71.226-156.536,71.226S6.928,431.963,6.928,369.748c0-70.257,64.614-116.289,142.395-145.361
	c36.379-14.1,80.805-28.15,113.136-37.163l0.974-69.192c0-26.116-14.141-41.186-41.402-41.186
	c-38.378,0-72.709,9.061-117.036,31.107c-6.486,4.119-15.117,2.229-19.262-4.216C85.342,103.157,85.001,102.478,84.708,101.849z
	 M266.457,232.285c-33.696,11.483-66.174,26.311-96.946,44.143c-28.284,17.056-47.449,39.15-47.449,66.235
	c0,29.072,19.165,48.115,49.497,48.115c37.355,0,67.638-21.03,93.874-44.141L266.457,232.285z"/>
</svg>
