<?xml version="1.0" encoding="iso-8859-1"?>
<!-- Generator: Adobe Illustrator 30.1.0, SVG Export Plug-In . SVG Version: 9.03 Build 0)  -->
<svg version="1.1" id="Layer_1" xmlns="http://www.w3.org/2000/svg" xmlns:xlink="http://www.w3.org/1999/xlink" x="0px" y="0px"
	 viewBox="0 0 500 750" style="enable-background:new 0 0 500 750;" xml:space="preserve">
<path style="fill:#D50B0B;" d="M187.313,334.954c29.435-29.277,71.204-52.899,132.963-52.899
	c100.64,0,173.725,65.165,173.725,179.401C494,631.463,355.398,741,193.043,741c-69.279,0-118.659-34.932-118.659-110.495
	l-0.963-424.105c0-34.977-22.925-56.683-55.019-62.338c-8.528-1.915-12.334-5.655-12.334-13.225v-18.925
	c-0.642-6.612,3.255-12.769,9.491-15.095c61.714-25.492,89.269-45.329,128.379-80.215c4.539-5.153,11.187-7.935,18.065-7.57h16.139
	c6.464,0.182,11.6,5.518,11.417,11.993c0,0.091,0,0.182,0,0.274L187.313,334.954z M189.239,599.449
	c0,43.415,29.388,66.079,67.398,66.079c75.009,0,137.548-57.596,137.548-144.469s-55.018-137.857-127.232-137.857
	c-29.252,0.136-57.22,12.04-77.578,32.924L189.239,599.449z"/>
</svg>
