<?xml version="1.0" encoding="UTF-8"?>
<svg id="Layer_1" xmlns="http://www.w3.org/2000/svg" version="1.1" viewBox="0 0 355.6 200.3">
  <!-- Generator: Adobe Illustrator 30.1.0, SVG Export Plug-In . SVG Version: 2.1.1 Build 136)  -->
  <defs>
    <style>
      .st0 {
        fill: #d50b0b;
      }
    </style>
  </defs>
  <path class="st0" d="M139.3,200.3c-10.1,0-18.6-3.4-25.3-10.1-6.7-6.8-10.1-15.2-10.1-25.5s3.4-18.7,10.1-25.4,15.2-10.1,25.3-10.1,18.6,3.4,25.3,10.2c6.8,6.8,10.2,15.2,10.2,25.4s-3.4,18.5-10.2,25.3c-6.8,6.8-15.2,10.2-25.3,10.2ZM139.3,187.3c6.3,0,11.6-2.1,15.7-6.4,4.1-4.3,6.2-9.7,6.2-16.2s-2.1-12-6.2-16.2c-4.1-4.3-9.3-6.4-15.6-6.4s-11.6,2.1-15.6,6.4c-4.1,4.3-6.1,9.6-6.1,16.2s2,11.9,6.1,16.2c4.1,4.3,9.3,6.4,15.7,6.4ZM133.5,124.8l7.1-14.4h12.3l-9.8,14.4h-9.6Z"/>
  <path class="st0" d="M76.1,123.4c-9.2,0-16.5-1.9-22-5.8-5.5-3.9-8.2-9-8.2-15.3s2.8-11.8,8.3-15.7c5.5-4,12.9-5.9,22-5.9s4.4.1,6.6.4c2.2.3,4.4.7,6.5,1.2,2.1.5,4,1.1,5.7,1.8,1.7.7,2.5,1,2.5,1l-3.6,10.4s-.8-.3-2.4-.8c-1.6-.5-3.2-1-4.8-1.3-1.6-.4-3.4-.6-5.4-.8-2-.2-3.6-.3-5-.3-5.1,0-9.1.9-12.1,2.6-2.9,1.8-4.4,4.2-4.4,7.4s1.5,5.5,4.6,7.3c3.1,1.8,7.1,2.7,12.1,2.7s2.8-.1,4.8-.3c2-.2,3.8-.6,5.4-1,1.6-.4,3.3-1,5-1.7,1.7-.7,2.5-1.1,2.5-1.1l5,9.9s-.8.4-2.3,1.1c-1.5.8-3.5,1.5-5.9,2.3-2.4.7-4.9,1.3-7.6,1.7-2.7.4-5.2.5-7.6.5Z"/>
  <path class="st0" d="M252.8,89.3c-7.6,0-13.9-2.5-18.9-7.6s-7.5-11.3-7.5-18.7,2.5-13.6,7.5-18.6c5-5.1,11.3-7.6,18.9-7.6s13.9,2.5,19,7.6c5.1,5,7.6,11.2,7.6,18.6s-2.5,13.6-7.6,18.7-11.4,7.6-19,7.6ZM252.8,77.9c3.9,0,7.3-1.4,10.1-4.2s4.2-6.4,4.2-10.6-1.4-7.8-4.2-10.6-6.1-4.2-10.1-4.2-7.3,1.4-10.1,4.2c-2.8,2.8-4.1,6.3-4.1,10.6s1.4,7.8,4.1,10.6c2.8,2.8,6.1,4.2,10.1,4.2ZM253,108.4c-2.1,0-3.9-.8-5.4-2.3-1.5-1.5-2.2-3.2-2.2-5.3s.7-3.9,2.2-5.4c1.5-1.4,3.3-2.1,5.4-2.1s4,.7,5.4,2.1c1.4,1.4,2.2,3.2,2.2,5.4s-.7,3.9-2.2,5.3c-1.4,1.5-3.2,2.3-5.4,2.3ZM236.1,32.4l12.1-14.4h9.7l12.1,14.4h-10.4l-6.5-7.8h0l-6.4,7.8h-10.5Z"/>
  <path class="st0" d="M174.4,103.1L192.6,0h14l-15.8,89.7h15.3l-2.4,13.4h-29.4Z"/>
  <path class="st0" d="M301.1,155.4c-9.2,0-16.5-1.9-22-5.8-5.5-3.9-8.2-9-8.2-15.3s2.8-11.8,8.3-15.7c5.5-4,12.9-5.9,22-5.9s4.4.1,6.6.4c2.2.3,4.4.7,6.5,1.2,2.1.5,4,1.1,5.7,1.8,1.7.7,2.5,1,2.5,1l-3.6,10.4s-.8-.3-2.4-.8c-1.6-.5-3.2-1-4.8-1.3-1.6-.4-3.4-.6-5.4-.8-2-.2-3.6-.3-5-.3-5.1,0-9.1.9-12.1,2.6-2.9,1.8-4.4,4.2-4.4,7.4s1.5,5.5,4.6,7.3c3.1,1.8,7.1,2.7,12.1,2.7s2.8-.1,4.8-.3c2-.2,3.8-.6,5.4-1,1.6-.4,3.3-1,5-1.7,1.7-.7,2.5-1.1,2.5-1.1l5,9.9s-.8.4-2.3,1.1c-1.5.8-3.5,1.5-5.9,2.3-2.4.7-4.9,1.3-7.6,1.7-2.7.4-5.2.5-7.6.5Z"/>
  <path class="st0" d="M338.1,101.1c-6.9,0-12.4-1.4-16.5-4.3-4.1-2.9-6.1-6.7-6.1-11.5s2.1-8.8,6.2-11.8c4.2-3,9.7-4.5,16.5-4.5s3.3,0,5,.3c1.7.2,3.3.5,4.9.9,1.6.4,3,.8,4.3,1.3,1.3.5,1.9.7,1.9.7l-2.7,7.8s-.6-.2-1.8-.6c-1.2-.4-2.4-.7-3.6-1-1.2-.3-2.6-.5-4.1-.6-1.5-.2-2.7-.2-3.7-.2-3.8,0-6.9.7-9.1,2-2.2,1.3-3.3,3.2-3.3,5.5s1.1,4.1,3.4,5.5c2.3,1.3,5.3,2,9.1,2s2.1,0,3.6-.3c1.5-.2,2.9-.4,4.1-.7,1.2-.3,2.5-.7,3.7-1.3,1.3-.6,1.9-.8,1.9-.8l3.8,7.4s-.6.3-1.7.9c-1.1.6-2.6,1.1-4.4,1.7-1.8.6-3.7,1-5.7,1.2-2,.3-3.9.4-5.7.4Z"/>
  <path class="st0" d="M57.1,177.1c-6.9,0-12.4-1.4-16.5-4.3-4.1-2.9-6.1-6.7-6.1-11.5s2.1-8.8,6.2-11.8c4.2-3,9.7-4.5,16.5-4.5s3.3,0,5,.3c1.7.2,3.3.5,4.9.9,1.6.4,3,.8,4.3,1.3,1.3.5,1.9.7,1.9.7l-2.7,7.8s-.6-.2-1.8-.6c-1.2-.4-2.4-.7-3.6-1-1.2-.3-2.6-.5-4.1-.6-1.5-.2-2.7-.2-3.7-.2-3.8,0-6.9.7-9.1,2-2.2,1.3-3.3,3.2-3.3,5.5s1.1,4.1,3.4,5.5c2.3,1.3,5.3,2,9.1,2s2.1,0,3.6-.3c1.5-.2,2.9-.4,4.1-.7,1.2-.3,2.5-.7,3.7-1.3,1.3-.6,1.9-.8,1.9-.8l3.8,7.4s-.6.3-1.7.9c-1.1.6-2.6,1.1-4.4,1.7-1.8.6-3.7,1-5.7,1.2-2,.3-3.9.4-5.7.4Z"/>
  <path class="st0" d="M12.9,138.7c-3.9,0-7.1-.8-9.4-2.5-2.3-1.7-3.5-3.9-3.5-6.6s1.2-5,3.6-6.7c2.4-1.7,5.5-2.5,9.4-2.5s1.9,0,2.8.2c1,.1,1.9.3,2.8.5.9.2,1.7.5,2.4.8.7.3,1.1.4,1.1.4l-1.5,4.4s-.3-.1-1-.3c-.7-.2-1.4-.4-2.1-.6-.7-.2-1.5-.3-2.3-.4s-1.6-.1-2.1-.1c-2.2,0-3.9.4-5.2,1.1-1.2.8-1.9,1.8-1.9,3.2s.7,2.4,2,3.1c1.3.8,3,1.2,5.2,1.2s1.2,0,2.1-.1c.9-.1,1.6-.2,2.3-.4.7-.2,1.4-.4,2.1-.7.7-.3,1.1-.5,1.1-.5l2.1,4.2s-.3.2-1,.5c-.7.3-1.5.7-2.5,1-1,.3-2.1.6-3.2.7-1.1.2-2.2.2-3.2.2Z"/>
  <path class="st0" d="M248.9,164.7c-3.9,0-7.1-.8-9.4-2.5-2.3-1.7-3.5-3.9-3.5-6.6s1.2-5,3.6-6.7c2.4-1.7,5.5-2.5,9.4-2.5s1.9,0,2.8.2,1.9.3,2.8.5c.9.2,1.7.5,2.4.8.7.3,1.1.4,1.1.4l-1.5,4.4s-.3-.1-1-.3c-.7-.2-1.4-.4-2.1-.6-.7-.2-1.5-.3-2.3-.4-.8,0-1.6-.1-2.1-.1-2.2,0-3.9.4-5.2,1.1-1.2.8-1.9,1.8-1.9,3.2s.7,2.4,2,3.1c1.3.8,3,1.2,5.2,1.2s1.2,0,2.1-.1c.9-.1,1.6-.2,2.3-.4.7-.2,1.4-.4,2.1-.7.7-.3,1.1-.5,1.1-.5l2.1,4.2s-.3.2-1,.5c-.7.3-1.5.7-2.5,1-1,.3-2.1.6-3.2.7-1.1.2-2.2.2-3.2.2Z"/>
</svg>