<?xml version="1.0" encoding="UTF-8"?>
<svg id="Layer_1" xmlns="http://www.w3.org/2000/svg" version="1.1" viewBox="0 0 64.9 42.3">
  <!-- Generator: Adobe Illustrator 30.1.0, SVG Export Plug-In . SVG Version: 2.1.1 Build 136)  -->
  <defs>
    <style>
      .st0 {
        fill: #d50b0b;
      }
    </style>
  </defs>
  <path class="st0" d="M54.9,18.3c-3.9,0-7.1-.8-9.4-2.5-2.3-1.7-3.5-3.9-3.5-6.6s1.2-5,3.6-6.7c2.4-1.7,5.5-2.5,9.4-2.5s1.9,0,2.8.2c1,.1,1.9.3,2.8.5.9.2,1.7.5,2.4.8.7.3,1.1.4,1.1.4l-1.5,4.4s-.3-.1-1-.3c-.7-.2-1.4-.4-2.1-.6-.7-.2-1.5-.3-2.3-.4-.8,0-1.6-.1-2.1-.1-2.2,0-3.9.4-5.2,1.1-1.2.8-1.9,1.8-1.9,3.2s.7,2.4,2,3.1c1.3.8,3,1.2,5.2,1.2s1.2,0,2.1-.1c.9-.1,1.6-.2,2.3-.4.7-.2,1.4-.4,2.1-.7.7-.3,1.1-.5,1.1-.5l2.1,4.2s-.3.2-1,.5-1.5.7-2.5,1c-1,.3-2.1.6-3.2.7s-2.2.2-3.2.2Z"/>
  <path class="st0" d="M12.9,42.3c-3.9,0-7.1-.8-9.4-2.5-2.3-1.7-3.5-3.9-3.5-6.6s1.2-5,3.6-6.7c2.4-1.7,5.5-2.5,9.4-2.5s1.9,0,2.8.2c1,.1,1.9.3,2.8.5.9.2,1.7.5,2.4.8.7.3,1.1.4,1.1.4l-1.5,4.4s-.3-.1-1-.3c-.7-.2-1.4-.4-2.1-.6-.7-.2-1.5-.3-2.3-.4-.8,0-1.6-.1-2.1-.1-2.2,0-3.9.4-5.2,1.1-1.2.8-1.9,1.8-1.9,3.2s.7,2.4,2,3.1c1.3.8,3,1.2,5.2,1.2s1.2,0,2.1-.1c.9-.1,1.6-.2,2.3-.4.7-.2,1.4-.4,2.1-.7.7-.3,1.1-.5,1.1-.5l2.1,4.2s-.3.2-1,.5-1.5.7-2.5,1c-1,.3-2.1.6-3.2.7-1.1.2-2.2.2-3.2.2Z"/>
</svg>