<?xml version="1.0" encoding="iso-8859-1"?>
<!-- Generator: Adobe Illustrator 30.1.0, SVG Export Plug-In . SVG Version: 9.03 Build 0)  -->
<svg version="1.1" id="Layer_1" xmlns="http://www.w3.org/2000/svg" xmlns:xlink="http://www.w3.org/1999/xlink" x="0px" y="0px"
	 viewBox="0 0 500 840" style="enable-background:new 0 0 500 840;" xml:space="preserve">
<path style="fill:#D50B0B;" d="M234.356,405.936l-1.108,286.034c0,58.506,20.7,79.124,77.422,87.81
	c7.426,0,13.428,5.966,13.428,13.344c0,0.942-0.104,1.936-0.314,2.878l-2.212,22.764c-0.738,7.692-7.48,13.45-15.222,12.978H27.164
	c-7.795,0.418-14.536-5.286-15.326-12.978l-2.159-22.764c-1.58-7.22,3.055-14.338,10.323-15.908
	c0.895-0.208,1.791-0.314,2.739-0.314c56.722-8.686,78.578-29.304,78.578-87.81l-1.106-167.978
	c0-71.482-26.333-105.078-66.518-123.498c-8.743-4.344-14.167-9.786-14.167-18.422v-30.35c0.263-8.112,7.11-14.392,15.274-14.13
	h65.412c0-158.14,97.065-329.364,260.647-329.364c70.89,0,129.77,44.428,129.77,102.933c0,31.398-14.166,49.818-43.608,63.895
	l-86.162,39.038c-6.53,3.244-16.326-1.1-16.326-8.635v-20.618c0.316-9.21,2.896-18.211,7.636-26.165
	c22.858-40.085,8.69-84.513-38.182-84.513c-46.874,0-88.376,43.329-88.376,133.284v130.144h138.62
	c7.742-0.68,14.536,5.024,15.22,12.716c0,0.472,0.052,0.942,0,1.414v40.084c0.106,7.692-6.11,14.078-13.852,14.182
	c-0.474,0-0.948,0-1.422,0H234.302L234.356,405.936z"/>
</svg>
