<?xml version="1.0" encoding="iso-8859-1"?>
<!-- Generator: Adobe Illustrator 30.1.0, SVG Export Plug-In . SVG Version: 9.03 Build 0)  -->
<svg version="1.1" id="Layer_1" xmlns="http://www.w3.org/2000/svg" xmlns:xlink="http://www.w3.org/1999/xlink" x="0px" y="0px"
	 viewBox="0 0 190.476 500" style="enable-background:new 0 0 190.476 500;" xml:space="preserve">
<path style="fill:#D50B0B;" d="M104.17,10.034c3.104-3.52,7.649-5.42,12.352-5.171h11.16c4.42,0.125,7.9,3.769,7.775,8.161
	c0,0.062,0,0.156,0,0.218l-0.658,398.704c0,34.825,12.351,47.098,46.083,52.268c4.42,0,7.994,3.613,7.994,8.005
	c0,0.561-0.063,1.09-0.188,1.651l-1.317,13.55c-0.439,4.579-4.452,7.974-9.061,7.725H12.16c-4.608,0.249-8.621-3.146-9.06-7.725
	l-1.317-13.55c-0.94-4.299,1.818-8.535,6.144-9.469c0.533-0.125,1.097-0.187,1.661-0.187c33.732-5.17,47.369-17.443,47.369-52.268
	l-0.846-272.395c0-23.892-16.207-38.718-38.277-42.581c-5.862-1.308-8.433-3.863-8.433-9.033V75.011
	c-0.439-4.517,2.226-8.753,6.489-10.31C58.087,47.413,77.524,33.863,104.17,10.034z"/>
</svg>
