<?xml version="1.0" encoding="iso-8859-1"?>
<!-- Generator: Adobe Illustrator 30.1.0, SVG Export Plug-In . SVG Version: 9.03 Build 0)  -->
<svg version="1.1" id="Layer_1" xmlns="http://www.w3.org/2000/svg" xmlns:xlink="http://www.w3.org/1999/xlink" x="0px" y="0px"
	 viewBox="0 0 500 562.5" style="enable-background:new 0 0 500 562.5;" xml:space="preserve">
<path style="fill:#D50B0B;" d="M5.975,283.482C5.975,127.745,111.583,6.95,261.519,6.95c111.367,0,164.583,74.516,182.906,146.742
	c1.481,5.887,2.25,11.938,2.304,18.043v15.808c0.658,7.577-4.115,14.663-11.41,16.953L142.25,315.098
	c23.865,74.515,81.798,124.173,170.398,121.94c52.502-2.235,101.658-26.438,135.233-66.612c5.431-7.577,15.91-9.594,23.81-4.525
	l15.965,11.283c6.308,5.233,8.173,14.119,4.498,21.423c-30.667,73.371-105.663,155.792-227.235,156.935
	C110.431,556.688,5.975,428.861,5.975,283.482z M309.248,179.639c10.04-56.418-19.312-105.096-78.398-105.096
	c-87.448,0-122.669,90.269-96.555,183.972L309.248,179.639z"/>
</svg>
