<?xml version="1.0" encoding="iso-8859-1"?>
<!-- Generator: Adobe Illustrator 30.1.0, SVG Export Plug-In . SVG Version: 9.03 Build 0)  -->
<svg version="1.1" id="Layer_1" xmlns="http://www.w3.org/2000/svg" xmlns:xlink="http://www.w3.org/1999/xlink" x="0px" y="0px"
	 viewBox="0 0 500 677.419" style="enable-background:new 0 0 500 677.419;" xml:space="preserve">
<path style="fill:#D50B0B;" d="M174.48,552.761c0,46.042,6.88,62.268,51.478,69.103c5.844,0,10.569,4.779,10.569,10.585
	c0,0.741-0.083,1.442-0.25,2.183l-1.739,17.913c-0.581,6.055-5.887,10.585-12.02,10.213H20.004
	c-6.134,0.371-11.44-4.158-12.02-10.213l-1.741-17.913c-1.243-5.684,2.404-11.285,8.124-12.521c0.705-0.164,1.451-0.247,2.197-0.247
	c44.598-6.836,57.488-23.062,57.488-69.103l-0.829-359.855c0-31.587-20.724-51.19-49.737-56.296
	c-7.709-1.73-11.149-5.107-11.149-11.943v-17.091c-0.58-5.971,2.943-11.572,8.621-13.631c55.747-23.021,81.486-40.936,116.675-72.44
	c4.103-4.654,10.113-7.166,16.33-6.836h14.59c5.844,0.165,10.445,4.983,10.28,10.79c0,0.082,0,0.206,0,0.288l-4.146,329.173
	c40.122-42.747,83.02-81.047,146.519-81.047c66.979,0,106.438,52.013,106.438,116.011v162.879c0,46.042,11.191,62.268,55.83,69.103
	c5.844,0.042,10.569,4.82,10.527,10.626c0,0.7-0.082,1.442-0.249,2.142l-1.698,17.913c-0.622,6.055-5.928,10.544-12.061,10.213
	H273.166c-6.093,0.331-11.399-4.158-12.02-10.213l-1.698-17.913c-1.243-5.684,2.322-11.285,8.04-12.521
	c0.746-0.164,1.535-0.247,2.281-0.247c44.598-6.836,52.308-23.062,52.308-69.103V393.26c0-29.817-17.989-48.555-45.593-48.555
	c-30.921,0-70.462,22.157-102.127,65.645L174.48,552.761z"/>
</svg>
